<?xml version="1.0" encoding="utf-8"?>
<!-- Generator: Adobe Illustrator 16.0.0, SVG Export Plug-In . SVG Version: 6.00 Build 0)  -->
<!DOCTYPE svg PUBLIC "-//W3C//DTD SVG 1.1//EN" "http://www.w3.org/Graphics/SVG/1.1/DTD/svg11.dtd">
<svg version="1.1" id="Layer_1" xmlns="http://www.w3.org/2000/svg" xmlns:xlink="http://www.w3.org/1999/xlink" x="0px" y="0px"
	 width="891.667px" height="1080px" viewBox="0 0 891.667 1080" enable-background="new 0 0 891.667 1080" xml:space="preserve">
<g>
	<g id="Modern_Outline_3_">
		<g>
			<path fill="#FFFFFF" stroke="#FFFFFF" stroke-width="5" stroke-miterlimit="10" d="M825.864,613.223
				c-7.535-15.389-18.895-28.119-29.357-41.363c-11.941-15.117-26.961-27.689-37.66-45.744c0.404,4.795,0.676,8.004,0.961,11.385
				c-0.986-0.082-1.552-0.054-2.076-0.185c-15.078-3.752-28.125-14.173-44.758-13.064c-7.131,0.476-12.456-4.021-17.433-8.82
				c-5.937-5.727-11.854-11.54-17.945-17.023c-12.104-10.899-17.258-23.81-16.149-39.784c0.453-6.54,0.093-13.133,0.229-19.699
				c0.348-16.788,1.196-33.594-1.347-50.294c-0.838-5.5-1.488-11.201-5.337-15.642c-5.911-6.824-11.663-13.836-18.082-20.16
				c-13.024-12.832-26.229-25.503-39.781-37.775c-11.016-9.975-22.547-19.392-34.072-28.782c-2.711-2.209-3.944-6.101-8.118-7.137
				c0.457,3.429,2.156,5.89,3.939,8.334c6.941,9.515,13.852,19.051,20.789,28.568c1.709,2.345,3.123,4.771,2.9,8.307
				c-1.408-1.249-2.561-2.149-3.564-3.192c-1.175-1.22-2.088-2.71-3.341-3.829c-18.094-16.159-38.702-28.303-60.873-37.918
				c-29.104-12.622-59.31-22.438-88.409-35.142c-28.502-12.441-58.199-22.087-85.525-37.309
				c-13.975-7.784-28.372-14.813-42.635-22.074c-2.438-1.241-4.622-3.337-7.681-3.048c2.549,4.07,6.195,7.016,9.989,9.836
				c10.352,7.698,21.605,14.215,30.793,23.442c0.336,0.336,1.014,0.875,0.953,0.978c-0.482,0.817-1.169,0.426-1.809,0.142
				c-3.56-1.47-7.514-2.372-10.605-4.517c-10.936-7.582-23.018-12.999-34.696-19.182c-0.259,0.375,1.839,4.956,3.538,6.454
				c9.068,7.998,18.26,15.854,27.348,23.83c1.309,1.15,3.399,1.78,3.492,4.624c-15.609-5.634-28.138-16.198-42.246-23.815
				c9.03,14.585,24.54,22.484,35.131,35.301c-26.501-11.588-52.309-24.215-77.865-37.367
				c-19.632-10.103-40.363-17.967-59.428-29.252c-25.891-15.324-49.84-33.445-74.096-51.127c-0.74-0.539-1.292-1.339-1.932-2.017
				c-0.862-0.004,0.627,5.638,1.303,7.379c4.531,11.659,8.717,23.461,14.691,34.51c1.111,2.054,2.129,4.081,4.219,5.365
				c9.471,5.817,18.187,12.731,27.8,18.402c18.009,10.623,55.354,32.14,55.935,32.425c-0.844,0.693-14.961-5.509-21.148-8.458
				c-15.832-7.549-31.97-14.461-48.003-21.588c-1.479-0.657-2.881-1.48-5.006-2.73c0.576,1.129,1.017,3.592,1.66,4.497
				c5.9,8.316,11.545,16.843,17.883,24.815c4.146,5.217,7.802,11.394,14.113,14.252c16.947,7.676,34.072,14.965,51.188,22.261
				c7.079,3.018,14.317,5.661,21.482,8.475c-0.193,0.584-40.126-6.5-59.173-13.905c0.036,1.905,0.74,3.152,1.826,4.34
				c6.258,6.845,12.643,13.558,19.525,19.786c1.499,1.357,3.188,2.059,5.087,2.555c17.06,4.455,34.435,7.605,51.229,13.209
				c8.924,2.978,18.314,4.609,27.561,6.534c4.776,0.994,8.123,3.649,11.834,7.898c-27.235-5.261-53.477-10.329-81.027-15.651
				c16.131,15.942,37.393,18.479,54.943,28.387c-9.7-0.794-19.028-3.665-28.741-3.562c16.369,9.843,31.8,21.176,48.829,30.045
				c-9.188-0.162-17.64-2.851-26.428-4.364c14.854,9.315,28.512,20.223,43.939,28.582c-5.447,0.604-10.877,1.206-16.307,1.809
				c-0.043,0.338,36.059,12.87,55.135,19.121c-6.227,3.032-11.805,3.359-17.225,5.196c6.557,3.95,13.21,6.88,19.777,10.59
				c-9.434,2.116-18.867,4.233-29.357,6.586c6.922,3.251,12.88,5.926,18.727,8.823c10.459,5.182,21.252,9.582,31.471,15.389
				c11.67,6.63,23.949,12.348,37.781,13.642c7.154,0.67,14.213,2.36,21.928,3.696c-8.623,13.143-16.771,25.503-24.814,37.933
				c-0.711,1.098-2.693,2.04-1.451,3.8c1.088,1.542,2.543,0.787,4.116,0.491c4.025-0.759,8.138-1.056,13.101-1.642
				c-5.574,10.814-10.641,20.738-15.793,30.617c-5.582,10.702-5.616,10.681,6.1,12.303c0.276,0.038,0.504,0.426,0.817,0.708
				c-6.653,13.44-16.198,25.067-24.011,38.407c10.577-0.859,20.391-1.523,30.17-2.516c4.021-0.408,5.352,0.092,3.5,4.436
				c-3.891,9.135-7.351,18.453-11.277,28.434c6.803-1.658,12.867-3.135,19.85-4.834c-3.268,7.313-7.074,13.461-8.819,20.715
				c15.593-2.189,29.54-9.164,45.417-11.197c-11.566,10.344-25.141,16.416-37.689,25.012c5.925,1.705,11.18,3.217,17.729,5.102
				c-15.444,5.818-30.414,8.516-44.412,16.111c11.499,6.871,22.635,13.523,34.572,20.654c-8.318,2.484-15.714,4.611-23.052,6.922
				c-3.759,1.182-7.384,1.355-11.35,0.816c-24.666-3.354-49.374-6.396-74.058-9.633c-2.943-0.387-4.877,0.459-7.066,2.566
				c-9.832,9.473-18.967,19.664-29.402,28.521c-4.15,3.523-8.001,7.395-12.882,11.941c14.783,2.777,27.586,8.025,40.941,11.279
				c5.511,1.342,7.159,3.311,5.688,8.914c-1.855,7.07-2.786,14.381-4.184,21.574c-0.591,3.041-0.064,4.59,3.633,4.412
				c10.215-0.488,20.451-0.506,30.666-1c3.258-0.156,4.425,0.723,4.576,4.041c0.451,9.83,1.253,19.645,1.813,29.471
				c0.124,2.164,0.366,4.412,3.099,2.973c6.619-3.49,14.131-3.34,20.975-5.639c4.928-1.654,5.506,0.607,5.697,4.459
				c0.365,7.324,1.41,14.652,1.238,21.955c-0.139,5.971,2.364,6.602,7.265,5.797c8.374-1.377,16.846-2.166,25.21-3.592
				c3.172-0.541,4.467,0.428,5.57,3.213c2.617,6.611,5.727,13.033,8.255,19.676c1.54,4.047,3.038,5.08,6.854,2.148
				c6.67-5.121,14.555-8.508,20.767-14.365c1.326-1.25,3.205-2.877,5.056-2.197c1.873,0.686,1.021,3.045,1.192,4.688
				c0.37,3.543,0.965,6.992,2.851,10.668c7.354-7.703,13.79-15.43,21.254-21.988c7.752-6.816,13.007-13.791,9.633-24.721
				c-0.834-2.705-0.709-5.734-0.824-8.623c-0.3-7.508-3.627-15.404-1.17-22.377c4.65-13.193,11.088-25.76,16.102-37.055
				c11.223,10.018,22.451,20.041,33.363,29.779c5.345-5.555,11.76-11.455,17.209-18.143c3.986-4.891,8.328-6.756,14.419-6.178
				c3.346,0.316,5.112,0.512,3.438,4.57c-1.683,4.082-2.416,8.553-4.035,12.668c-1.354,3.441-0.187,4.363,3.039,4.578
				c7.701,0.51,15.387,1.234,23.086,1.752c2.482,0.168,4.625,0.746,3.207,3.654c-2.28,4.676,1.027,4.021,3.608,4.258
				c9.496,0.877,18.991,1.756,29.863,2.762c-5.138,4.094-9.19,7.324-14.546,11.59c17.993-0.906,34.115-1.719,50.229-2.533
				c1.331,2.949,2.788,5.846,3.94,8.861c0.916,2.398,2.229,3.797,4.951,3.973c7.059,0.453,10.738,4.799,8.277,13.5
				c-0.807,2.852-2.703,5.885-0.885,8.867c7.674,12.594,14.404,25.906,27.967,33.77c4.797,2.783,8.326,0.799,11.479-1.832
				c3.57-2.98-0.631-5.361-1.746-7.857c-0.494-1.104-1.857-1.814-2.824-2.705l-0.322,0.367c-0.32,1.67,1.551,3.779-0.098,4.906
				c-2.063,1.408-3.342-1.139-4.816-2.09c-7.068-4.559-4.227-12.807-7.117-19.109c10.912,7.691,20.18,17.1,31.031,24.525
				c2.16,1.479-0.039,3.127-0.711,4.5c-0.645,1.314-1.359,3.189-3.139,2.998c-1.879-0.201-1.723-2.199-2.086-3.629
				c-0.162-0.635,0.23-1.559-1.209-1.863c-1.777,2.223-4.549,4.477-2.285,7.744c5.008,7.223,11.689,8.512,19.496,4.16
				c1.85-1.031,3.662-2.146,5.402-3.354c6.123-4.238,6.639-6.25,3.541-12.951c-1.002-2.17-2.881-3.535-4.416-5.244
				c-3.973-4.426-8.945-7.77-13.902-12.18c15.871-0.143,22.498,9.936,28.025,21.504c2.578,5.393,1.703,10.178-1.477,14.889
				c-2.582-1.199-2.18-4.359-4.52-5.357c-1.012,4.377-1.012,4.377,3.781,15.02c2.705,0,5.412,0,8.117,0
				c1.371-4.156,6.047-2.988,8.623-5.336c1.518-1.381,3.678-1.859,3.555-4.652c-0.711-16.264-4.865-31.16-19.123-40.703
				c-8.023-5.367-13.186-12.275-16-21.102c-1.385-4.34-3.965-5.146-7.861-4.551c-4.383,0.668-8.773,1.406-13.188,1.732
				c-5.91,0.436-12.191,2.582-17.705-0.221c-18.979-9.652-37.363-20.111-41.379-43.828c0.041-0.199,0.072-0.398,0.116-0.598
				c0.022-1.494,0.044-2.994,0.063-4.492c8.961,6.072,18.484,11.449,22.951,22.318c1.275,3.105,1.758,4.627-4.217,4.332
				c5.811,2.352,9.066,5.131,13.402,6.115c0-2.105-0.063-3.83,0.01-5.553c0.488-11.754-2.098-22.006-13.549-27.973
				c-0.467-0.598-2.021-0.846-1.068-1.891c0.67-0.734,1.611,0.15,2.32,0.678c9.467,3.6,19.449,6.498,23.381,17.518
				c0.24,0.672,0.969,1.18,1.498,1.736c1.416,1.494,3.41,2.756,0.467,4.857c-2.338,1.672-4.4,3.447-6.832,0.359
				c-1.143-1.451-2.182-2.984-3.637-4.99c-0.973,5.27,0.383,9.645,1.279,14.047c0.289,1.424,1.178,2.369,2.764,2.488
				c8.525,0.635,16.922,1.18,23.564-6.033c2.307-2.502,2.631-4.389,0.316-6.764c-0.328-0.5-1.455-0.799-0.689-1.545
				c0.264-0.258,1.26,0.238,1.922,0.389c0.77,0,1.541,0.033,2.309-0.004c6.363-0.309,7.295-1.313,5.16-7.088
				c-2.662-7.203-6.08-14.131-8.682-21.355c-1.834-5.092-4.834-6.949-10.252-7.064c-10.758-0.229-21.58-0.516-32.193-2.508
				c-12.16-2.281-18.809-11.709-25.764-20.67c-2.58-3.324-3.713-7.695-7.336-10.248c-0.006-0.021-0.012-0.043-0.018-0.064
				c-0.082-0.035-0.154-0.07-0.223-0.107c-0.01-0.006-0.018-0.014-0.025-0.02c0,0.002,0,0.006,0.002,0.008
				c-1.238-0.688-0.379-1.941-0.495-2.93c6.716-3.979,14.487-5.197,21.613-8.387c19.843-8.887,39.067-19.215,59.617-26.514
				c4.621-1.641,8.829-4.479,11.795-8.063c4.596-5.555,11.309-6.184,16.125-4.59c3.669,1.213,5.755,0.076,8.497-0.393
				c2.938,9.58,9.393,15.871,18.496,19.68l0.391-0.412c-5.934-9.104-5.201-21.145-13.383-29.443
				c6.189,0.646,10.354,4.313,14.393,7.908c5.947,5.291,2.906,12.564,3.455,19.051c11.742-3.111,16.588-9.814,15.9-21.797
				c-0.523-1.002-1.027-2.016-1.572-3.006c-2.918-5.293-7.871-9.129-13.328-10.793c5.551,1.625,10.604,5.498,13.563,10.869
				c0.545,0.99,1.049,2.004,1.572,3.006c0.284-6.748,0.519-13.498,0.885-20.244C826.929,616.396,826.675,614.879,825.864,613.223z
				 M758.19,806.002c-4.771,0.381-8.926-1.936-13.291-3.498C749.516,802.742,754.032,803.416,758.19,806.002z M738.018,743.943
				c1.734,3.754,3.643,7.424,5.662,11.521c-3.463-0.391-3.988-2.865-5.16-4.734c-1.453,0.443-0.463,2.072-1.371,2.826
				c-3.859-4.525-7.725-9.057-11.818-13.859C734.463,736.146,734.424,736.164,738.018,743.943z"/>
		</g>
		<g>
			<path id="Blue_5_" fill-rule="evenodd" clip-rule="evenodd" fill="#0D64AB" d="M682.448,743.188
				c-0.021,1.525-0.043,3.053-0.065,4.574c-2.041,9.199,0.07,18.598-1.298,27.836c-16.179,0.816-32.358,1.633-50.425,2.543
				c5.355-4.266,9.408-7.496,14.546-11.59c-10.872-1.006-20.367-1.885-29.863-2.762c-2.581-0.236-5.889,0.418-3.608-4.258
				c1.418-2.908-0.725-3.486-3.207-3.654c-7.699-0.518-15.385-1.242-23.086-1.752c-3.226-0.215-4.394-1.137-3.039-4.578
				c1.619-4.115,2.353-8.586,4.035-12.668c1.674-4.059-0.093-4.254-3.438-4.57c-6.091-0.578-10.433,1.287-14.419,6.178
				c-5.449,6.688-11.864,12.588-17.209,18.143c-10.912-9.738-22.141-19.762-33.363-29.779
				c-5.014,11.295-11.451,23.861-16.102,37.055c-2.457,6.973,0.87,14.869,1.17,22.377c0.115,2.889-0.01,5.918,0.824,8.623
				c3.374,10.93-1.881,17.904-9.633,24.721c-7.464,6.559-13.9,14.285-21.254,21.988c-1.886-3.676-2.48-7.125-2.851-10.668
				c-0.171-1.643,0.681-4.002-1.192-4.688c-1.851-0.68-3.729,0.947-5.056,2.197c-6.212,5.857-14.097,9.244-20.767,14.365
				c-3.816,2.932-5.314,1.898-6.854-2.148c-2.528-6.643-5.638-13.064-8.255-19.676c-1.104-2.785-2.398-3.754-5.57-3.213
				c-8.364,1.426-16.836,2.215-25.21,3.592c-4.9,0.805-7.403,0.174-7.265-5.797c0.172-7.303-0.873-14.631-1.238-21.955
				c-0.191-3.852-0.77-6.113-5.697-4.459c-6.844,2.299-14.355,2.148-20.975,5.639c-2.732,1.439-2.975-0.809-3.099-2.973
				c-0.561-9.826-1.362-19.641-1.813-29.471c-0.151-3.318-1.318-4.197-4.576-4.041c-10.215,0.494-20.451,0.512-30.666,1
				c-3.697,0.178-4.224-1.371-3.633-4.412c1.397-7.193,2.328-14.504,4.184-21.574c1.471-5.604-0.178-7.572-5.688-8.914
				c-13.355-3.254-26.158-8.502-40.941-11.279c4.881-4.547,8.731-8.418,12.882-11.941c10.436-8.857,19.57-19.049,29.402-28.521
				c2.189-2.107,4.123-2.953,7.066-2.566c24.684,3.236,49.392,6.279,74.058,9.633c3.966,0.539,7.591,0.365,11.35-0.816
				c7.338-2.311,14.733-4.438,23.052-6.922c-11.938-7.131-23.073-13.783-34.572-20.654c13.998-7.596,28.968-10.293,44.412-16.111
				c-6.549-1.885-11.804-3.396-17.729-5.102c12.549-8.596,26.123-14.668,37.689-25.012c-15.877,2.033-29.824,9.008-45.417,11.197
				c1.745-7.254,5.552-13.402,8.819-20.715c-6.982,1.699-13.047,3.176-19.85,4.834c3.927-9.98,7.387-19.299,11.277-28.434
				c1.852-4.346,0.521-4.846-3.5-4.438c-9.779,0.992-19.593,1.658-30.17,2.518c7.813-13.34,17.357-24.967,24.011-38.408
				c-0.313-0.281-0.541-0.67-0.817-0.707c-11.716-1.623-11.682-1.602-6.1-12.303c5.152-9.879,10.219-19.803,15.793-30.618
				c-4.963,0.586-9.075,0.883-13.101,1.643c-1.573,0.296-3.028,1.05-4.116-0.492c-1.242-1.76,0.74-2.701,1.451-3.799
				c8.043-12.43,16.191-24.791,24.814-37.934c-7.715-1.336-14.773-3.025-21.928-3.695c-13.832-1.295-26.111-7.012-37.781-13.643
				c-10.219-5.807-21.012-10.207-31.471-15.389c-5.847-2.896-11.805-5.572-18.727-8.822c10.49-2.354,19.924-4.471,29.357-6.586
				c-6.567-3.711-13.221-6.641-19.777-10.59c5.42-1.838,10.998-2.164,17.225-5.197c-19.076-6.25-55.178-18.783-55.135-19.121
				c5.43-0.602,10.859-1.205,16.307-1.809c-15.428-8.359-29.086-19.266-43.939-28.582c8.788,1.514,17.24,4.203,26.428,4.365
				c-17.092-8.902-32.572-20.287-49.008-30.154l0.057,0.107c9.756-0.129,19.122,2.766,28.863,3.563
				c-17.551-9.906-38.813-12.443-54.943-28.387c27.551,5.322,53.792,10.391,81.027,15.652c-3.711-4.25-7.058-6.904-11.834-7.898
				c-9.246-1.926-18.637-3.557-27.561-6.535c-16.795-5.604-34.17-8.754-51.229-13.209c-1.899-0.496-3.588-1.197-5.087-2.555
				c-6.883-6.229-13.268-12.941-19.525-19.785c-1.086-1.188-1.79-2.436-1.826-4.34c19.047,7.404,58.979,14.488,59.173,13.904
				c-7.165-2.813-14.403-5.457-21.482-8.475c-17.116-7.295-34.241-14.584-51.188-22.26c-6.312-2.859-9.967-9.035-14.113-14.252
				c-6.338-7.973-11.982-16.5-17.883-24.816c-0.643-0.904-1.083-3.367-1.66-4.496c2.125,1.25,3.528,2.072,5.006,2.73
				c16.033,7.127,32.171,14.039,48.003,21.588c6.188,2.949,20.305,9.15,21.148,8.457c-0.58-0.285-37.926-21.801-55.935-32.424
				c-9.613-5.672-18.329-12.586-27.8-18.402c-2.09-1.285-3.107-3.313-4.219-5.365c-5.975-11.049-10.16-22.852-14.691-34.51
				c-0.676-1.742-2.165-7.383-1.303-7.379c0.64,0.678,1.191,1.477,1.932,2.016c24.256,17.682,48.205,35.803,74.096,51.127
				c19.064,11.285,39.796,19.15,59.428,29.252c25.557,13.152,51.364,25.779,77.865,37.367
				c-10.591-12.816-26.101-20.715-35.131-35.301c14.108,7.617,26.637,18.182,42.246,23.816c-0.093-2.844-2.184-3.475-3.492-4.625
				c-9.088-7.977-18.279-15.832-27.348-23.83c-1.699-1.498-3.797-6.078-3.538-6.453c11.679,6.182,23.761,11.6,34.696,19.182
				c3.092,2.145,7.046,3.047,10.605,4.516c0.64,0.285,1.326,0.676,1.809-0.141c0.061-0.104-0.617-0.643-0.953-0.979
				c-9.188-9.227-20.441-15.744-30.793-23.441c-3.821-2.842-7.497-5.807-10.049-9.924l-0.122,0.102
				c3.155-0.395,5.375,1.768,7.862,3.033c14.263,7.262,28.66,14.291,42.635,22.074c27.326,15.223,57.023,24.867,85.525,37.309
				c29.1,12.705,59.305,22.52,88.409,35.143c22.171,9.615,42.779,21.758,60.873,37.918c1.253,1.119,2.166,2.609,3.341,3.828
				c1.004,1.043,2.156,1.943,3.564,3.193c0.223-3.535-1.191-5.963-2.9-8.307c-6.938-9.518-13.848-19.055-20.789-28.568
				c-1.783-2.445-3.482-4.906-3.939-8.334c4.174,1.035,5.407,4.928,8.118,7.137c11.525,9.391,23.057,18.807,34.072,28.781
				c13.552,12.273,26.757,24.943,39.781,37.775c6.419,6.324,12.171,13.336,18.082,20.16c3.849,4.441,4.499,10.143,5.337,15.643
				c2.543,16.699,1.694,33.506,1.347,50.293c-0.136,6.566,0.225,13.16-0.229,19.699c-1.108,15.975,4.046,28.885,16.149,39.784
				c6.091,5.484,12.009,11.297,17.945,17.023c4.977,4.801,10.302,9.297,17.433,8.82c16.633-1.107,29.68,9.313,44.758,13.064
				c0.524,0.131,1.09,0.104,2.076,0.186c-0.285-3.381-0.557-6.59-0.961-11.385c10.699,18.054,25.719,30.626,37.66,45.744
				c10.463,13.244,21.822,25.975,29.357,41.363c0.812,1.656,1.065,3.174,0.968,4.959c-0.366,6.746-0.601,13.496-0.885,20.244
				c-0.523-1.002-1.027-2.016-1.572-3.006c-4.725-8.572-14.777-13.334-23.679-11.223c-9.951,2.359-13.436,7.109-14.038,19.131
				c-2.842,0.445-4.938,1.67-8.695,0.428c-4.816-1.594-11.529-0.965-16.125,4.59c-2.966,3.584-7.174,6.422-11.795,8.063
				c-20.55,7.299-39.774,17.627-59.617,26.514c-7.126,3.189-14.897,4.408-21.613,8.387c0.126,1.068-0.903,2.455,0.839,3.09
				l-0.11-0.092C673.843,710.6,678.145,726.895,682.448,743.188z M203.052,217.242"/>
			<g id="Gold_5_">
				<path fill-rule="evenodd" clip-rule="evenodd" fill="#FFCE22" d="M680.848,775.521c1.369-9.238-0.742-18.637,1.299-27.836
					c3.775,24.199,22.34,34.758,41.498,44.502c5.514,2.803,11.795,0.656,17.705,0.221c4.414-0.326,8.805-1.064,13.188-1.732
					c3.896-0.596,6.477,0.211,7.861,4.551c2.814,8.826,7.977,15.734,16,21.102c14.258,9.543,18.412,24.439,19.123,40.703
					c0.123,2.793-2.037,3.271-3.555,4.652c-2.576,2.348-7.252,1.18-8.623,5.336c-2.705,0-5.412,0-8.117,0
					c-4.793-10.643-4.793-10.643-3.781-15.02c2.34,0.998,1.938,4.158,4.52,5.357c3.18-4.711,4.055-9.496,1.477-14.889
					c-5.527-11.568-12.154-21.646-28.025-21.504c4.957,4.41,9.93,7.754,13.902,12.18c1.535,1.709,3.414,3.074,4.416,5.244
					c3.098,6.701,2.582,8.713-3.541,12.951c-1.74,1.207-3.553,2.322-5.402,3.354c-7.807,4.352-14.488,3.063-19.496-4.16
					c-2.264-3.268,0.508-5.521,2.285-7.744c1.439,0.305,1.047,1.229,1.209,1.863c0.363,1.43,0.207,3.428,2.086,3.629
					c1.779,0.191,2.494-1.684,3.139-2.998c0.672-1.373,2.871-3.021,0.711-4.5c-10.852-7.426-20.119-16.834-31.031-24.525
					c2.891,6.303,0.049,14.551,7.117,19.109c1.475,0.951,2.754,3.498,4.816,2.09c1.648-1.127-0.223-3.236,0.098-4.906l0.322-0.367
					c0.967,0.891,2.33,1.602,2.824,2.705c1.115,2.496,5.316,4.877,1.746,7.857c-3.152,2.631-6.682,4.615-11.479,1.832
					c-13.563-7.863-20.293-21.176-27.967-33.77c-1.818-2.982,0.078-6.016,0.885-8.867c2.461-8.701-1.219-13.047-8.277-13.5
					c-2.723-0.176-4.035-1.574-4.951-3.973C683.665,781.424,682.19,778.5,680.848,775.521z M758.19,806.002
					c-4.158-2.586-8.674-3.26-13.291-3.498C749.264,804.066,753.418,806.383,758.19,806.002z"/>
				<path fill-rule="evenodd" clip-rule="evenodd" fill="#FFCE22" d="M682.211,743.111c-4.303-16.293-8.604-32.588-12.906-48.881
					c3.842,2.521,4.959,7.033,7.602,10.439c6.955,8.961,13.604,18.389,25.764,20.67c10.613,1.992,21.436,2.279,32.193,2.508
					c5.418,0.115,8.418,1.973,10.252,7.064c2.602,7.225,6.02,14.152,8.682,21.355c2.135,5.775,1.203,6.779-5.16,7.088
					c-0.768,0.037-1.539,0.004-2.309,0.004c-0.662-0.15-1.658-0.646-1.922-0.389c-0.766,0.746,0.361,1.045,0.689,1.545
					c2.314,2.375,1.99,4.262-0.316,6.764c-6.643,7.213-15.039,6.668-23.564,6.033c-1.586-0.119-2.475-1.064-2.764-2.488
					c-0.896-4.402-2.252-8.777-1.279-14.047c1.455,2.006,2.494,3.539,3.637,4.99c2.432,3.088,4.494,1.313,6.832-0.359
					c2.943-2.102,0.949-3.363-0.467-4.857c-0.529-0.557-1.258-1.064-1.498-1.736c-3.932-11.02-13.914-13.918-23.381-17.518
					c-0.709-0.527-1.65-1.412-2.32-0.678c-0.953,1.045,0.602,1.293,1.068,1.891c11.451,5.967,14.037,16.219,13.549,27.973
					c-0.072,1.723-0.01,3.447-0.01,5.553c-4.336-0.984-7.592-3.764-13.402-6.115c5.975,0.295,5.492-1.227,4.217-4.332
					C700.891,754.623,691.239,749.248,682.211,743.111z M725.331,739.697c4.094,4.803,7.959,9.334,11.818,13.859
					c0.908-0.754-0.082-2.383,1.371-2.826c1.172,1.869,1.697,4.344,5.16,4.734c-2.02-4.098-3.928-7.768-5.662-11.521
					C734.424,736.164,734.463,736.146,725.331,739.697z"/>
				<path fill-rule="evenodd" clip-rule="evenodd" fill="#FFCE22" d="M786.422,643.252c0.602-12.021,4.086-16.771,14.037-19.131
					c8.902-2.111,18.955,2.65,23.68,11.223c0.545,0.99,1.049,2.004,1.572,3.006c0.688,11.982-4.158,18.686-15.9,21.797
					c-0.549-6.486,2.492-13.76-3.455-19.051c-4.039-3.596-8.203-7.262-14.393-7.908c8.182,8.299,7.449,20.34,13.383,29.443
					l-0.391,0.412C795.817,659.219,789.344,652.896,786.422,643.252z"/>
			</g>
			<g id="White_4_">
				<path fill-rule="evenodd" clip-rule="evenodd" fill="#FFFFFF" d="M521.606,614.273c-11.004,0-22.045-0.553-33,0.172
					c-9.055,0.6-17.268,5.154-25.926,7.725c-6.111,1.816-12.307,3.008-18.898,2.967c2.506-1.033,5.035-2.016,7.514-3.109
					c17.01-7.504,33.975-15.109,51.039-22.484c3.313-1.432,5.123-3.832,7.141-7.594c-11.262,2.52-21.834,4.883-32.717,7.318
					c4.074-4.686,7.918-6.99,14.33-8.695c5.373-1.428,10.75-2.836,16.498-4.352c-10.324-5.322-19.645,0.348-30.01,1.502
					c3.678-4.381,7.199-7.318,12.367-8.256c13.744-2.494,27.121-6.863,41.123-8.082c2.357-0.205,4.307-1.391,6.162-3.332
					c-17.439,2.43-34.668,0.674-52.381-2.111c4.971-4.27,11.418-5.473,16.896-9.439c-11.492-3.492-23.713-2.145-34.262-9.518
					c5.574-1.602,10.709-3.043,15.822-4.557c4.344-1.287,8.666-2.373,12.869-4.408c5.844-2.826,11.727-0.523,17.541,2.855
					c-5.688,0.884-11.08-0.059-16.215,1.771c-4.887,1.738-9.902,3.115-15.791,4.939c19.309,5.719,37.422,2.195,55.615-1.654
					c-10.332,5.803-21.953,8.678-33.117,16.359c16.709,0.686,32.039,1.314,48.559,1.992c-12.568,9.441-24.396,17.336-40.168,15.355
					c26.889,9.23,52.016,4.506,76.604-8.969c-5.354-1.514-10.395-2.939-15.785-4.465c3.322-2.385,7.256-1.746,11.244-3.713
					c-6.906-2.061-13.26-3.957-19.613-5.854c0.006-0.305,0.01-0.609,0.016-0.912c5.348-0.611,10.695-1.221,16.043-1.832
					c0.055-0.236,0.109-0.473,0.162-0.709c-6.922-1.879-13.844-3.76-22.393-6.08c6.365-2.262,11.488-1.412,16.363-1.938
					c16.018-1.732,31.949-0.344,47.775,2.379c1.684,0.289,3.672,0.496,4.893,1.5c8.574,7.066,18.789,8.207,31.141,8.154
					c-6.68,4.949-11.996,8.891-17.316,12.826c-1.553,1.146-3.521,1.984-4.59,3.473c-1.748,2.438-4.09,5.342-3.979,7.955
					c0.1,2.322,4.25,1.555,6.527,2.406c2.303,0.859,4.809,1.18,8.529,2.035c-6.852,4.508-12.854,8.455-19.756,12.996
					c6.701,1.863,12.625,3.512,19.518,5.43c-3.594,1.02-6.174,1.752-8.752,2.484c8.422,2.676,17.25,2.154,24.945,5.807
					c-16,3.576-34.076,0.26-48.248,13.273c5.023,1.131,9.824,2.213,14.584,3.285c0.277-0.559,0.596-0.898,0.582-1.225
					c-0.326-7.236-0.334-7.098,6.887-7.008c10.402,0.131,20.807,0.033,31.211,0.033c0.043,0.725,0.084,1.451,0.125,2.178
					c-14.102,3.199-28.203,6.396-42.305,9.602c-3.195,0.727-6.486,1.189-9.559,2.271c-13.066,4.598-26.406,3.053-39.424,0.846
					c-19.244-3.262-38.078-0.979-56.947,2.021c-8.834,1.406-17.16-0.828-25.668-2.422c10.449-1.406,20.896-2.811,31.41-4.225
					c0.482-2.844-3.266-3.602-3.164-6.629c4.707,1.27,9.289,2.508,14.854,4.008c-1.732-2.725-2.957-4.65-5.133-8.074
					c12.01,6.309,22.988,8.689,34.807,2.23c-2.744-1.488-5.434-2.941-8.117-4.406c-2.826-1.543-5.646-3.098-8.23-5.625
					c7.664,1.664,15.326,3.328,24.207,5.258c-4.748-4.096-9.818-5.863-12.502-10.551c8.266,0.283,14.898,5.992,23.223,6.514
					c-1.939-3.848-5.295-6.098-9.43-9c7.656-0.201,13.279,3.889,19.926,4.549c-1.471-3.021-4.352-4.127-5.988-6.742
					c8.273,2.037,16.299,4.664,24.553,9.752c-12.461,5.555-23.961,10.678-35.461,15.803c0.076,0.307,0.154,0.615,0.23,0.922
					c8.201,0.818,16.402,1.637,25.779,2.572c-2.512-3.768-5.945-2.936-9.193-5.254c11.777-0.672,19.932-7.461,29.156-11.822
					c1.588-0.75,4.15-1.008,3.918-3.545c-0.201-2.213-2.598-2.012-4.082-2.545c-11.969-4.291-23.986-8.439-35.984-12.646
					c-8.336-2.922-17.139-2.453-25.729-3.416c-12.461-1.398-25.008-2.01-37.48-3.324c-4.379-0.463-5.121,2.936-6.617,5.262
					c-1.158,1.803,1.094,1.896,2.322,2.072c3.367,0.484,6.881-0.021,11.699,1.773c-13.998,3.301-26.535,6.26-40.063,9.451
					c9.754,2.004,18.578,3.818,27.4,5.633C521.684,613.732,521.645,614.004,521.606,614.273z M592.84,552.609
					c2.543,0.982,5.086,1.963,7.742,2.988c-2.688,2.227-6.418,0.824-8.656,3.422c2.246,1.668,5.334,1.26,7.463,3.504
					c-2.268,0.836-4.34,1.602-6.949,2.564c4.637,2.102,9.107,2.289,13.387,3.227c2.775,0.609,5.84,2.223,8.391,0.873
					c6.527-3.455,12.746-7.496,19.086-11.301C619.608,555.063,606.625,550.41,592.84,552.609z M615.249,582.18
					c-6.551-1.738-12.531-6.334-19.4-3.869c-6.326,2.271-12.934,3.924-19.652,7.52c9.805,2.734,18.637,5.199,28.82,8.041
					c-4.91-5.662-1.879-7.256,2.287-8.557C610.014,584.469,612.604,583.238,615.249,582.18z M637.803,587.754
					c-9.922-3.707-18.365-4.369-27.359-0.59c-4.93,2.07-3.695,5.15-1.623,6.566c3.793,2.586,8.592,5.072,13.342,2.988
					C627.374,594.432,632.118,591.074,637.803,587.754z M627.657,580.42c3.139-11.424,14.381-13.756,22.166-20.67
					c-8.342-0.129-22.127,6.023-30.381,13.76C629.245,569.344,626.333,576.033,627.657,580.42z"/>
				<path fill-rule="evenodd" clip-rule="evenodd" fill="#FFFFFF" d="M722.473,651.697c6.205-4.342,11.594-8.109,18.021-12.604
					c-8.18-1.158-15.266-2.162-22.771-3.225c2.152-3.533,6.412-3.996,9.475-7.311c-9.977-1.4-19.492-2.734-30.588-4.291
					c6.311-1.305,11.002-2.273,15.695-3.244c0.02-0.236,0.039-0.473,0.059-0.711c-9.732-1.828-19.465-3.656-29.197-5.484
					c6.291-2.047,12.635-3.525,20.088-6.33c-10.873-1.475-20.607-2.793-31.459-4.264c8.643-4.121,16.621-5.865,25.262-5.703
					c-9.516-3.549-18.975-6.949-27.828-13.818c10.523-1.514,20.15-2.898,30.02-4.32c-10.475-7.74-23.732-9.605-34.982-17.871
					c7.51-1.225,13.832,1.115,20.145,0.676c14.732-1.023,25.287,5.463,32.787,18.078c-1.992,0.633-4.387,1.391-7.021,2.225
					c1.717,2.402,4.836,1.639,6.791,3.719c-1.707,1.061-3.301,2.051-5.301,3.293c2.355,2.533,5.863,2.631,8.441,4.48
					c-0.781,2.33-3.764,1.641-4.842,3.518c22.865,11.945,45.414,24.592,70.596,35.85c-4.691,0.738-7.715,1.314-10.766,1.68
					c-11.467,1.373-21.561,5.773-31.293,12.07C737.932,651.904,730.477,652.813,722.473,651.697z"/>
				<path fill-rule="evenodd" clip-rule="evenodd" fill="#FFFFFF" d="M514.459,440.767c-12.461,1.957-24.836,4.395-37.469,0.445
					c-8.625-2.693-17.465-5.004-26.381-6.363c-7.531-1.148-10.807-7.578-16.432-10.959c-0.285-0.17-0.51-0.594-0.582-0.938
					c-0.492-2.352,8.678-13.863,11.324-14.137c4.197-0.438,8.404-0.768,13.682-1.238c-10.871-6.832-23.266-10.158-29.932-21.637
					c5.016,0,10.053,0,16.689,0c-3.154-1.887-5.002-2.992-6.971-4.17c1.74-2.398,4.738-0.543,7.047-2.295
					c-3.455-1.875-6.744-3.66-10.033-5.443c0.039-0.408,0.076-0.818,0.115-1.229c6.996,0,14.027-0.439,20.979,0.117
					c7.695,0.617,13.576-2.793,20.455-7.146c-13.619-5.963-27.588-4.568-41.133-7.486c4.074-5.385,10.82-5.807,16.221-9.102
					c-15.289-4.533-31.701-2.916-46.303-10.992c16.551-5.969,33.189-5.887,49.885-6.035c-8.219,2.484-16.438,4.967-24.656,7.449
					c-0.037,0.369-0.074,0.74-0.111,1.109c14.322,2.5,28.646,4.998,42.971,7.498c0.059,0.35,0.115,0.699,0.174,1.047
					c-5.975,1.947-11.947,3.896-18.564,6.053c2.525,2.531,5.24,2.457,7.764,2.58c7.434,0.367,14.34,2.564,21.16,5.383
					c2.605,1.078,2.938,2.035,1.074,3.971c-5.646,5.869-12.627,9.143-20.596,10.289c-2.354,0.338-4.797,0.053-8.865,0.053
					c3.117,2.064,4.77,3.16,6.313,4.182c-0.287,2.309-3.023,1.145-3.418,3.566c8.73,2.936,18.746,3.67,26.041,11.375
					c-11.686-0.924-23.189-1.834-34.691-2.744c-0.146,0.275-0.291,0.549-0.438,0.824c12.035,6.734,24.068,13.469,36.102,20.203
					c-0.02,0.283-0.039,0.566-0.059,0.85c-3.752-0.43-7.574-0.549-11.246-1.355c-7.67-1.682-15.344-0.885-23.051-0.826
					c-4.768,0.037-5.865,3.73-8.025,6.488c-0.527,0.672-0.33,1.578,0.385,2.027c4.447,2.799,7.729,7.129,13.107,8.781
					C475.704,436.714,494.717,440.429,514.459,440.767z"/>
				<path fill-rule="evenodd" clip-rule="evenodd" fill="#FFFFFF" d="M419.405,551.303c10.523,0,20.467,0,31.18,0
					c-8.246,11.801-16.154,23.117-24.063,34.436c-0.404-0.244-0.811-0.486-1.215-0.729c2.846-8.131,5.691-16.262,8.818-25.191
					c-9.936,0-19.252,0-29.559,0c7.639-12.738,14.713-24.533,22.227-37.066c-3.912,0-7.213,0-11.258,0
					c6.92-12.988,13.221-25.303,20.023-37.329c2.57-4.545,2.021-5.969-3.174-5.682c-3.408,0.189-6.834,0.035-11.877,0.035
					c9.238-10.818,16.27-21.404,26.057-29.951c-1.578,7.639-5.795,14.287-7.723,22.385c8.707-0.928,17.213-1.834,26.9-2.867
					c-7.359,8.602-14.09,16.469-20.822,24.335c-1.131,1.32-2.381,2.555-3.379,3.967c-0.684,0.967-2.236,1.646-1.232,3.406
					c0.809,1.424,1.91,1.676,3.35,1.639c2.309-0.059,4.619-0.016,8.236-0.016C440.752,519.321,429.274,534.561,419.405,551.303z"/>
				<path fill-rule="evenodd" clip-rule="evenodd" fill="#FFFFFF" d="M509.155,467.447c12.865,9.863,26.564,17.184,40.99,23.55
					c-7.027,0.434-13.674-1.79-20.488-2.548c-4.266-0.475-8.553-2.922-13.748,0.549c13.346,6.206,25.824,12.964,39.33,20.874
					c-7.873-0.318-13.887-2.852-20.164-3.898c-1.705-0.285-3.43-0.637-5.045-1.23c-1.787-0.656-3.191-0.248-3.869,1.361
					c-0.824,1.961,1.303,2,2.26,2.541c7.641,4.314,15.342,8.52,23.857,13.217c-10.227,2.133-20.063-1.799-29.25,2.963
					c8.104,5.947,17.287,4.711,26.412,5.979c-8.912,4.23-16.947,4.732-25.504,0.1c-7.045-3.816-14.803-6.313-23.67-9.984
					c8.488-2.088,15.533-3.822,23.531-5.791c-9.748-4.285-20.186-5.871-26.004-15.375c5.102-2.258,10.596-0.764,16.627-3.217
					c-10.287-4.359-19.766-8.628-27.041-17.124c8.979,0,17.432,0,26.465,0c-8.676-6.219-18.787-9.326-26.047-16.578
					c16.803-7.791,33.799-5.34,50.852-1.445C528.838,463.074,518.274,460.775,509.155,467.447z"/>
				<path fill-rule="evenodd" clip-rule="evenodd" fill="#FFFFFF" d="M548.604,398.281c-12.141-0.701-23.418-1.354-36.383-2.102
					c3.357,2.227,5.34,3.543,7.324,4.857c-7.889-1.912-16.127-2.926-22.971-9.84c11.654,0,22.107,0,33.875,0
					c-10.289-5.686-19.697-10.885-30.01-16.584c10.24-1.379,19.924-0.623,29.445-4.258c-13.094-9.521-30.605-7.502-43.264-17.973
					c6.584-3.402,13.271-2.736,19.994-2.982c-14.945-6.994-27.941-16.787-41.393-26.436c8.229,1.195,16.457,2.391,25.678,3.73
					c-5.709-4.559-10.68-8.529-16.76-13.383c12.434-0.029,23.68-1.836,35.658,1.244c-5.201,2.326-10.258,1.201-14.807,2.689
					c-1.238,0.406-3.381-0.822-3.574,1.506c-0.158,1.91,1.758,2.314,3.068,2.996c9.234,4.809,18.498,9.566,27.729,14.383
					c1.621,0.846,3.139,1.889,4.465,3.459c-12.908-5.186-26.473-6.541-41.568-8.686c13.807,9.922,28.336,14.926,42.553,21.576
					c-9.221,4.301-18.143-1.285-27.873,0.963c13.746,6.744,28.994,8,40.174,18.555c-7.174,5.965-16.119,3.855-25.148,5.953
					C526.188,384.986,538.114,389.607,548.604,398.281z"/>
				<path fill-rule="evenodd" clip-rule="evenodd" fill="#FFFFFF" d="M379.846,715.428c-3.688-2.32-7.377-4.641-11.637-7.318
					c6.883-2.27,10.842,2.488,15.703,4.408c1.66,0.658,3.502,4.553,5.512,0.936c1.682-3.023-1.043-4.273-3.363-5.484
					c-3.523-1.838-6.945-3.873-10.906-6.104c8.191-2.652,13.557,2.588,19.635,5.201c1.279,0.551,1.32,1.697,1.225,2.93
					c-0.264,3.461-0.543,6.926-0.635,10.393c-0.057,2.168-0.902,3.43-3.096,3.027c-4.379-0.805-5.037,2.162-5.75,5.27
					c-0.688,3-1.666,5.945-2.174,8.971c-0.395,2.35-1.412,3.184-3.789,3.258c-3.518,0.113-5.607-0.258-4.043-4.676
					c1.406-3.967,2.191-8.152,3.258-12.271c-4.826-1.65-7.025,0.145-7.795,4.729c-0.506,3.02-1.674,5.92-2.387,8.912
					c-0.51,2.131-1.494,3.049-3.855,3.33c-4.354,0.518-6.24-0.332-4.123-4.963c0.473-1.031,0.604-2.223,0.891-3.34
					c0.619-2.41,2.229-5.109,1.629-7.162c-0.914-3.133-4.271-0.744-6.506-1.25c-3.598-0.816-5.336-4.156-8.369-5.766
					c-5.201-2.758-10.229-5.844-16.67-9.566c7.094-0.645,12.232-0.537,17.23,2.818c4.672,3.135,9.277,7.275,16.59,5.197
					c-4.518-2.744-8.604-5.229-13.088-7.953C364.227,705.363,370.499,715.549,379.846,715.428z"/>
				<path fill-rule="evenodd" clip-rule="evenodd" fill="#FFFFFF" d="M405.2,747.322c-6.104-1.783-11.535-3.373-17.566-5.137
					c3.936-3.471,7.547-5.145,12.318-3.582c3.832,1.254,7.797,2.111,11.719,3.082c2.146,0.533,4.953,0.773,5.592-1.494
					c0.775-2.762-2.578-2.086-4.037-2.721c-3.135-1.363-6.523-2.143-10.346-3.326c2.371-2.707,4.486-4.791,7.977-3.828
					c9.602,2.646,19.174,5.395,30.348,8.551c-20.635,9.189-38.105,21.277-57.842,29.145c2.869-2.422,5.701-4.891,8.617-7.254
					c3.178-2.576,2.682-4.119-1.104-5.371c-5.471-1.813-10.85-3.895-16.6-5.982c3.33-3.393,6.697-4.846,11.289-2.967
					c3.545,1.451,7.412,2.109,10.996,3.484C399.893,751.201,402.493,750.654,405.2,747.322z"/>
				<path fill-rule="evenodd" clip-rule="evenodd" fill="#FFFFFF" d="M493.254,738.092c-4.588,7.297-10.619,13.537-15.508,20.639
					c-2.803,4.07-4.854,8.26-6.43,12.781c-3.164,9.08-6.336,18.166-9.154,27.355c-1.092,3.564-3.078,5.336-6.521,6.369
					c-7.473,2.242-14.85,4.805-23.201,7.543c1.039-1.098,1.252-1.514,1.572-1.633c14.244-5.279,20.748-16.52,23.631-30.576
					c0.154-0.748,0.559-1.441,0.736-2.186c3.152-13.268,10.555-23.521,21.658-31.363c4.291-3.031,8.109-6.734,12.143-10.131
					C492.54,737.293,492.897,737.691,493.254,738.092z"/>
				<path fill-rule="evenodd" clip-rule="evenodd" fill="#FFFFFF" d="M486.518,306.033c-43.807-7.359-87.943-12.859-131.121-23.77
					C399.534,287.746,444.145,290.56,486.518,306.033z"/>
				<path fill-rule="evenodd" clip-rule="evenodd" fill="#FFFFFF" d="M548.842,438.542c-18.127-2.227-33.971-9.615-48.254-20.586
					c6.029-11.471,18.082-9.697,33.438-4.801c-4.582,0.771-8.85,1.418-12.709,3.857c-2.941,1.859-3.674,2.85-0.154,4.834
					c4.799,2.707,9.125,6.156,13.607,9.359C539.032,434.253,544.118,436.144,548.842,438.542z"/>
				<path fill-rule="evenodd" clip-rule="evenodd" fill="#FFFFFF" d="M630.842,710.689c9.119-1.496,15.045-6.926,23.088-11.406
					c-6.244,10.457-13.533,16.768-23.49,21.248c-10.844,4.877-19.668,2.498-29.107-3.836c5.061-1.096,9.836,0.191,14.537,0.078
					c3.412-0.08,5.055-0.9,4.635-4.564c-0.164-1.426-0.496-3.211,1.416-3.992c5.965-2.436,11.941-4.842,18.486-6.268
					C637.469,704.633,634.53,707.318,630.842,710.689z"/>
				<path fill-rule="evenodd" clip-rule="evenodd" fill="#FFFFFF" d="M395.458,782.039c6.963-7.092,14.404-10.969,24.973-7.189
					c7.982,2.855,16.699,5.328,25.715,0.051c-2.049,4.572-4.188,9.105-6.113,13.729c-1.074,2.572-2.586,1.482-4.189,0.883
					c-5.748-2.15-11.65-3.951-17.219-6.49c-5.697-2.6-11.223-3.268-17.178-1.24c-1.758,0.6-3.771,0.461-5.666,0.662L395.458,782.039
					z"/>
				<path fill-rule="evenodd" clip-rule="evenodd" fill="#FFFFFF" d="M482.834,664.182c-10.156,0.869-19.043,1.631-29.268,2.508
					c4.461,2.295,7.768,3.996,11.531,5.932c-4.904,1.949-8.672,1.188-12.658-1.295c-7.602-4.734-15.504-8.986-24.066-13.889
					c9.563-2.377,15.17,7.344,24.021,5.516c-2.762-3.197-6.863-3.707-10.047-6.729c9.654-2.508,15.996,7.18,25.76,6.158
					c-3.449-3.695-7.98-4.043-11.717-7.395c4.494,0,10.176-1.35,11.195,0.256c2.939,4.639,7.881,4.563,11.564,7.059
					C479.907,662.814,480.788,663.148,482.834,664.182z"/>
				<path fill-rule="evenodd" clip-rule="evenodd" fill="#FFFFFF" d="M309.979,330.257c20.268,3.242,33.73,16.799,47.225,30.557
					c-6.643-2.754-14.326-0.871-20.289-7.23c-6.523-6.957-14.729-12.33-22.141-18.467
					C313.069,333.705,310.897,332.685,309.979,330.257z"/>
				<path fill-rule="evenodd" clip-rule="evenodd" fill="#FFFFFF" d="M474.127,802.408c1.207-14.775,3.953-28.309,21.004-32.736
					c0.621,0.398,0.08,1.479,0.354,2.316c2.877,8.76-1.156,14.168-8.113,19.072C482.786,794.295,479.383,799.189,474.127,802.408z"
					/>
				<path fill-rule="evenodd" clip-rule="evenodd" fill="#FFFFFF" d="M289.02,270.357c-7.705-3.154-15.322-3.594-21.43-8.607
					c-10.783-8.854-21.693-17.549-32.568-26.326c2.119-1.066,3.658,0.451,5.365,1.125c13.705,5.426,25.523,13.814,36.742,23.195
					C278.456,260.853,286.918,266.158,289.02,270.357z"/>
				<path fill-rule="evenodd" clip-rule="evenodd" fill="#FFFFFF" d="M420.827,761.896c2.529-2.74,4.629-4.377,6.471-6.242
					c3.684-3.727,7.963-6.699,13.781-3.838c1.68,0.826,3.707,0.947,5.578,1.381c8.691,2.006,9.525,4.994,3.635,12.088
					c-1.332,1.604-2.627,1.203-4.09,0.957C438.098,764.871,429.999,763.471,420.827,761.896z"/>
				<path fill-rule="evenodd" clip-rule="evenodd" fill="#FFFFFF" d="M302.694,702.348c7.887-7.602,16.467-12.377,23.391-19.307
					c2.777-2.777,7.748-0.344,11.635,0.061c1.957,0.205,0.52,2.23-0.273,3.051c-4.934,5.109-9.986,10.102-14.949,15.182
					c-1.102,1.131-2.412,1.004-3.734,1.008C313.799,702.357,308.836,702.348,302.694,702.348z"/>
				<path fill-rule="evenodd" clip-rule="evenodd" fill="#FFFFFF" d="M611.225,738.525c-2.492-2.729,6.916-1.324,0.725-4.275
					c-1.201-0.572,0.072-1.414,0.947-1.877c11.383-6.021,23.703-8.594,36.363-9.908c0.186-0.02,0.438,0.586,0.693,0.953
					c-0.422,1.695-2.516,0.354-3.158,1.73c1.207,0.332,2.408,0.664,3.992,1.1c-4.574,3.963-10.111-1.199-14.471,2.34
					c2.936,2.252,6.727,0.652,10.217,2.646c-6.324,4.086-13.883-2.479-20.141,3.17c5.373,0.795,10.088,1.49,14.801,2.186
					c-0.025,0.588-0.053,1.178-0.08,1.766C631.182,739.49,621.083,735.078,611.225,738.525z"/>
				<path fill-rule="evenodd" clip-rule="evenodd" fill="#FFFFFF" d="M486.52,729.305c-6.912-1.449-12.568-2.578-18.189-3.855
					c-1.627-0.369-4.932-0.086-4.24-2.166c1.016-3.057,1.336-8.002,6.221-7.736c7.094,0.391,14.145,1.533,21.223,2.289
					c2.49,0.266,2.896,1.666,1.738,3.438C491.208,724.436,490.147,728.752,486.52,729.305z"/>
				<path fill-rule="evenodd" clip-rule="evenodd" fill="#FFFFFF" d="M379.913,365.224c-9.502-2.205-17.742-2.684-24.027-10.398
					c-4.727-5.803-11.602-9.855-17.377-15.152c7.176,0.779,13.939,2.904,20.211,6.646
					C360.018,347.554,377.532,362.857,379.913,365.224z"/>
				<path fill-rule="evenodd" clip-rule="evenodd" fill="#FFFFFF" d="M378.149,389.371c-5.998-1.221-11.576-0.945-16.496-5.314
					c-8.268-7.344-17.176-13.969-26.676-21.588c6.559,0.27,11.701,0.973,16.025,4.744c1.211,1.057,13.689,10.15,18.336,14.141
					C370.02,381.937,376.573,385.357,378.149,389.371z"/>
				<path fill-rule="evenodd" clip-rule="evenodd" fill="#FFFFFF" d="M319.295,291.853c5.195,6.268,12.693,9.799,18.389,15.471
					c-12.145-0.256-25.215-8.795-43.711-28.619c6.328,0.939,11.713,3.49,16.637,7.26
					C311.69,286.789,319.295,291.853,319.295,291.853z"/>
				<path fill-rule="evenodd" clip-rule="evenodd" fill="#FFFFFF" d="M345.629,723.879c-6.83,1.385-12.059-0.385-17.666-3.887
					c-7.105-4.439-15.332-7.082-23.367-10.629C317.141,705.418,336.454,712.254,345.629,723.879z"/>
				<path fill-rule="evenodd" clip-rule="evenodd" fill="#FFFFFF" d="M270.553,251.146c17.277,2.668,29.25,13.371,41.297,24.074
					c-7.658-1.779-15.627-2.369-21.881-8.203C287.702,264.902,274.174,255.544,270.553,251.146z"/>
				<path fill-rule="evenodd" clip-rule="evenodd" fill="#FFFFFF" d="M359.709,312.564c-5.641,1.654-10.783-0.135-15.219-3.201
					c-6.768-4.674-13.049-10.047-19.658-14.959c-1.219-0.906-6.803-5.416-9.139-6.215l0.043,0.086
					c6.293-1.453,11.367,1.93,16.74,4.174c1.367,0.572,25.311,18.832,26.205,19.836c0.371,0.113,0.744,0.225,1.117,0.336
					L359.709,312.564z"/>
				<path fill-rule="evenodd" clip-rule="evenodd" fill="#FFFFFF" d="M450.489,325.716c-19.711,1.203-37.963-1.865-51.785-17.844
					c8.898,2.273,17.74,4.912,25.432,9.746c6.596,4.145,13.807,5.049,20.953,6.771C446.889,324.826,448.688,325.273,450.489,325.716
					z"/>
				<path fill-rule="evenodd" clip-rule="evenodd" fill="#FFFFFF" d="M336.618,293.083c5.15-1.914,10.15,0.293,13.863,2.686
					c9.826,6.332,18.906,13.822,28.09,21.213c-5.506-0.691-11.102-0.672-15.621-4.574c-0.752-0.65-24.383-18.092-25.27-19.111
					c-0.373-0.105-0.744-0.211-1.119-0.316L336.618,293.083z"/>
				<path fill-rule="evenodd" clip-rule="evenodd" fill="#FFFFFF" d="M410.889,396.205c-6.973-0.139-12.225-3.965-17.334-8.092
					c-1.299-1.293-19.332-15.068-21.494-16.869c5.705-2.615,14.205,3.205,14.221,3.316c0.041,0.273,7.633,6.928,11.574,9.594
					C400.127,385.693,410.784,394.337,410.889,396.205z"/>
				<path fill-rule="evenodd" clip-rule="evenodd" fill="#FFFFFF" d="M427.813,714.75c11.295-8.645,21.791-0.791,33.123-1.352
					c-2.334,3.152-4.139,5.303-5.605,7.664c-0.98,1.58-2.377,1.568-3.469,0.992C444.532,718.186,436.073,718,427.813,714.75z"/>
				<path fill-rule="evenodd" clip-rule="evenodd" fill="#FFFFFF" d="M392.452,389.082c-0.299,0.828,4.295,2.096-0.078,2.414
					c-3.641,0.266-7.086-0.668-10.234-3.053c-3.426-2.594-19.963-15.145-24.646-19.09c-0.688-0.578-3.625-3.512,0.652-2.773
					c8.021,1.383,21.461,12.238,21.461,12.238C380.487,380.91,390.977,388.289,392.452,389.082z"/>
				<path fill-rule="evenodd" clip-rule="evenodd" fill="#FFFFFF" d="M330.758,702.375c4.627-5.854,8.389-10.881,12.443-15.656
					c3.121-3.676,6.674-0.137,10.643-0.533c-2.795,5.086-5.406,9.541-7.703,14.154c-1.008,2.023-2.504,2.049-4.262,2.041
					C338.622,702.361,335.364,702.375,330.758,702.375z"/>
				<path fill-rule="evenodd" clip-rule="evenodd" fill="#FFFFFF" d="M400.973,376.763c9.68,6.908,19.361,13.84,27.854,22.154
					c-6.025,0.051-7.971-0.512-13.436-3.906c-1.711-0.988-19.717-16.293-25.641-20.797c-0.387-0.014-0.775-0.027-1.162-0.041
					C388.588,374.173,397.362,374.185,400.973,376.763z"/>
				<path fill-rule="evenodd" clip-rule="evenodd" fill="#FFFFFF" d="M363.12,346.376c8.094,1.658,15.717,3.795,21.57,10.578
					c3.541,4.102,8.594,6.896,13.205,10.461c-5.85,1.342-7.1,0.824-20.832-8.32c-3.297-2.082-11.033-9.885-12.828-10.461
					l0.068,0.064C363.909,347.925,363.514,347.15,363.12,346.376z"/>
				<path fill-rule="evenodd" clip-rule="evenodd" fill="#FFFFFF" d="M415.35,726.15c2.861-2.279,4.779-4.098,8.17-3.08
					c7.846,2.354,15.781,4.408,24.125,6.707c-2.195,4.127-4.469,5.801-9.113,4.004C431.237,730.961,423.67,728.846,415.35,726.15z"
					/>
				<path fill-rule="evenodd" clip-rule="evenodd" fill="#FFFFFF" d="M332.301,280.408c-15.066-1.004-22.598-12.953-34.037-19.256
					C306.487,260.71,322.559,269.8,332.301,280.408z"/>
				<path fill-rule="evenodd" clip-rule="evenodd" fill="#FFFFFF" d="M605.01,463.847c-10.98-0.686-6.822,8.639-9.834,14.012
					c-2.809-6.191-6.078-11.625-3.547-18.496c1.482-4.025,4.42-5.021,7.645-2.117c1.281,1.152,2.467,2.422,3.613,3.709
					C603.622,461.781,604.208,462.74,605.01,463.847z"/>
				<path fill-rule="evenodd" clip-rule="evenodd" fill="#FFFFFF" d="M530.243,702.5c8.846,0.953,12.805,8.176,19.963,11.674
					c-0.555-3.637-3.533-4.385-4.426-6.555c6.133,0.082,11.752,3.654,18.471,12.568c-6.994-4.537-15.875-3.234-22.723-7.895
					C537.747,709.719,534.549,706.287,530.243,702.5z"/>
				<path fill-rule="evenodd" clip-rule="evenodd" fill="#FFFFFF" d="M662.969,749.701c-10.635,11.426-22.08,12.229-34.477,8.705
					c8.939,0.92,16.865-2.715,25.045-5.426c-4.732-0.523-9.295-2.051-14.037-1.479C646.663,748.414,654.184,750.803,662.969,749.701
					z"/>
				<path fill-rule="evenodd" clip-rule="evenodd" fill="#FFFFFF" d="M474.829,734.592c-7.758,10.723-15.514,1.398-23.834,2.178
					c3.598-5.568,6.934-8.262,12.787-5.545C467.014,732.723,470.647,733.354,474.829,734.592z"/>
				<path fill-rule="evenodd" clip-rule="evenodd" fill="#FFFFFF" d="M463.495,746.135c-7.654,9.24-15.252,0.002-23.566,1.17
					C446.497,739.826,451.858,739.734,463.495,746.135z"/>
				<path fill-rule="evenodd" clip-rule="evenodd" fill="#FFFFFF" d="M637.252,514.258c-7.561,3.238-7.498,3.215-4.881,10.543
					c0.881,2.467,2.631,4.738,2.109,8.059c-4.592-4.051-7.109-9.189-9.662-14.127c-1.303-2.518-1.668-5.652,1.398-8.295
					c3.23-2.781,5.148-0.879,7.414,0.947C634.672,512.225,635.725,513.049,637.252,514.258z"/>
				<path fill-rule="evenodd" clip-rule="evenodd" fill="#FFFFFF" d="M395.366,700.762c11.965-2.488,20.523,3.197,30.131,5.67
					c-4.451,4.756-4.471,4.807-9.375,2.84C409.594,706.648,403.102,703.938,395.366,700.762z"/>
				<path fill-rule="evenodd" clip-rule="evenodd" fill="#FFFFFF" d="M602.963,491.528c-8.281-2.362-8.514,3.799-10.223,8.805
					c-2.279-4.938-5.17-9.004-3.621-14.823c1.352-5.08,3.848-3.961,6.523-2.186c2.789,1.85,5.156,4.332,7.709,6.539
					C603.223,490.417,603.092,490.971,602.963,491.528z"/>
				<path fill-rule="evenodd" clip-rule="evenodd" fill="#FFFFFF" d="M671.76,749.6c2.334,9.049-7.139,18.041-19.166,17.408
					C660.276,761.691,664.885,754.959,671.76,749.6z"/>
				<path fill-rule="evenodd" clip-rule="evenodd" fill="#FFFFFF" d="M618.504,750.881c1.711-2.705,5.535-1.35,6.83-4.795
					c-8.186-2.576-16.234-2.436-25.535-0.52c5.596-4.654,11.193-4.264,16.51-4.219c4.385,0.041,8.746,1.24,13.143,1.459
					c4.164,0.207,3.303,2.01,1.785,4.27C628.022,751.865,622.805,749.156,618.504,750.881z"/>
				<path fill-rule="evenodd" clip-rule="evenodd" fill="#FFFFFF" d="M613.637,505.944c-12.059,1.314-3.352,8.57-6.02,12.203
					c-3.578-2.162-5.672-6.02-7.432-9.938c-1.213-2.705-1.014-6.66,1.268-7.873c2.092-1.113,5.852-0.715,7.936,2.332
					C610.1,503.708,611.456,504.303,613.637,505.944z"/>
				<path fill-rule="evenodd" clip-rule="evenodd" fill="#FFFFFF" d="M357.754,702.523c-3.283,0.379-4.637-0.395-3.021-3.725
					c1.41-2.916,2.693-5.934,3.623-9.031c1.092-3.645,4.035-2.826,6.09-2.309c2.723,0.688,0.82,2.961,0.479,4.518
					c-0.492,2.232-1.354,4.389-1.795,6.629C362.5,701.803,360.85,703.293,357.754,702.523z"/>
				<path fill-rule="evenodd" clip-rule="evenodd" fill="#FFFFFF" d="M597.463,432.654c-4.068,0.359-5.725-2.105-7.355-5.568
					c-1.328,2.506-2.422,4.564-3.715,7.002c-2.223-4.6-1.355-9.154-2.172-13.434c-0.184-0.959,0.41-2.543,1.18-3.094
					c1.094-0.779,2.031,0.574,2.877,1.281C592.647,422.488,595.083,427.386,597.463,432.654z"/>
				<path fill-rule="evenodd" clip-rule="evenodd" fill="#FFFFFF" d="M597.417,724.566c-10.959,4.523-14.332-6.482-21.318-10.037
					C584.961,713.846,591.743,717.74,597.417,724.566z"/>
				<path fill-rule="evenodd" clip-rule="evenodd" fill="#FFFFFF" d="M617.512,485.107c-5.678-2.764-8.137,1.055-10.662,4.697
					c-2.742-5.947-2.65-12.482,0.66-13.359C614.063,474.71,614.446,481.58,617.512,485.107z"/>
				<path fill-rule="evenodd" clip-rule="evenodd" fill="#FFFFFF" d="M600.581,450.349c-4.285-1.979-8.166-6.355-11.492,0.695
					c-1.98-1.457-2.324-3.525-2.57-5.287c-0.359-2.566,1.074-4.965,3.072-6.383c2.15-1.525,3.934,0.387,5.508,1.785
					C597.858,443.609,599.02,447.042,600.581,450.349z"/>
				<path fill-rule="evenodd" clip-rule="evenodd" fill="#FFFFFF" d="M668.071,532.829c-5.195-1.674-8.539-4.971-11.029-9.166
					c-0.566-0.955-1.52-2.352,0.266-3.488c2.727-1.736,5.578-1.359,8.371-0.584c2.006,0.559,1.125,1.994,0.49,3.219
					C664.331,526.364,667.87,528.87,668.071,532.829z"/>
				<path fill-rule="evenodd" clip-rule="evenodd" fill="#FFFFFF" d="M580.657,724.264c-10.709,1.412-13.186-10.023-21.117-12.803
					C566.536,710.605,573.305,714.869,580.657,724.264z"/>
				<path fill-rule="evenodd" clip-rule="evenodd" fill="#FFFFFF" d="M646.28,744.947c6.119-7.346,14.27-2.631,21.488-3.557
					C661.768,748.564,653.356,743.41,646.28,744.947z"/>
				<path fill-rule="evenodd" clip-rule="evenodd" fill="#FFFFFF" d="M334.483,742.318c1.68-5.76,6.148-8.496,11.523-7.635
					c1.395,0.223,2.148,0.652,1.861,2.119c-0.387,1.986-0.146,4.422-3.145,4.666C341.502,741.73,338.282,742.002,334.483,742.318z"
					/>
				<path fill-rule="evenodd" clip-rule="evenodd" fill="#FFFFFF" d="M680.659,534.959c-3.688-2.492-8.16-3.053-9.428-7.953
					c-0.436-1.689-0.553-2.787,0.867-4.037c1.855-1.637,3.6-0.658,5.383-0.166c1.932,0.533,2.307,1.76,1.404,3.516
					C677.297,529.405,680.598,531.542,680.659,534.959z"/>
				<path fill-rule="evenodd" clip-rule="evenodd" fill="#FFFFFF" d="M634.555,363.029c-8.088-5.088-13.203-13.186-20.125-19.453
					C623.754,347.408,629.161,355.214,634.555,363.029z"/>
				<path fill-rule="evenodd" clip-rule="evenodd" fill="#FFFFFF" d="M654.04,737.186c3.344-3.615,14.594-5.795,17.656-4.188
					c0.801,0.422,1.141,0.885,0.828,1.758c-0.561,1.576-1.467,2.498-3.34,2.461C664.444,737.123,659.702,737.186,654.04,737.186z"/>
				<path fill-rule="evenodd" clip-rule="evenodd" fill="#FFFFFF" d="M692.655,664.791c6.98-3.58,13.959-7.162,20.939-10.742
					c-0.236-0.592-0.473-1.184-0.709-1.777c-6.064,0.369-12.176-0.344-18.182,1.303c-3.256-0.6-6.742,0.951-10.668-0.9
					c5.309-4.232,10.223-7.781,16.535-11.354c-3.738-0.488-5.461,0.936-7.295,1.791c-4.613,2.154-8.984,5.947-13.73,6.449
					c-8.158,0.861-16.527-0.311-24.809-0.559c-1.58-0.049-1.84-1.146-2.186-2.217c-0.395-1.219,0.576-1.689,1.395-2.15
					c1.922-1.082,4.385-1.275,6.736-4.854c-5.803,2.199-10.166,4.047-14.66,5.492c-3.695,1.188-4.063,3.053-0.951,6.256
					c-4.834-0.924-8.67-1.656-12.506-2.387c-0.207,0.404-0.414,0.811-0.621,1.219c5.09,3.514,10.18,7.031,15.27,10.545
					c-7.277-0.498-13.32-4.166-20.629-5.094c2.043,3.898,5.98,5.561,7.615,9.703c-21.211-4.508-41.766-9.957-62.387-15.889
					c3.912,3.365,7.824,6.732,11.734,10.098c-0.209,0.313-0.418,0.625-0.629,0.938c-7.225-2.848-14.451-5.693-21.676-8.541
					c-0.115,0.328-0.23,0.658-0.346,0.986c2.582,2.273,5.164,4.547,7.746,6.82c-6.209-0.162-11.199-3.488-18.074-4.068
					c2.557,1.74,4.238,2.883,5.918,4.025c0.422,0.49,0.844,0.979,1.264,1.469c-0.912,0.682-1.633,0.266-2.309-0.404
					c-3.205-0.057-6.105-2.557-9.738-1.072c1.557,1.6,4.369,1.605,5.723,5.385c-15.221-6.084-30.223-4.139-46.52-5.199
					c7.072,5.855,12.947,10.717,19.92,16.488c-10.293,1.139-18.625,2.059-27.645,3.055c1.469,1.156,2.381,1.877,3.951,3.113
					c-5.963-0.145-11.066,0.15-16.186-3.318c6.889-4.268,13.275-8.225,20.186-12.506c-6.43-3.43-12.064-6.434-18.838-10.043
					c7.109-1.967,12.738,0.088,18.336,0.111c0.189-1.951-2.703-1.365-2.482-3.469c4.59,0.232,9.111,0.461,13.494,0.686
					c0.818-2.1-2.555-2.781-1.061-4.752c4.697,0.217,9.326,0.428,15.258,0.699c-9.504-5.553-19.049-5.6-27.854-8.301
					c-0.404,2.398,2.498,2.654,2.008,5.289c-8.123-2.971-16.123-5.898-24.777-9.066c1.217,2.637,3.834,2.816,4.059,5.561
					c-4.842-0.699-9.549-1.379-14.254-2.059c-0.096,0.291-0.191,0.582-0.287,0.873c6.719,2.822,13.439,5.645,20.391,8.563
					c-2.527,3.527-7.207,2.059-10.416,4.658c4.084,2.742,7.84,5.416,11.75,7.84c2.955,1.832,3.836,3.26,0.514,5.809
					c-4.588,3.516-8.893,7.412-13.188,11.293c-1.217,1.1-3.871,1.855-2.061,4.475c3.719,0.836,7.449,1.621,11.146,2.535
					c1.262,0.313,2.623,0.703,2.746,2.453c0.141,2.053-1.5,2.4-2.814,3.098c-1.684,0.893-2.59-0.018-2.969-1.465
					c-1.119-4.26-5.723-3.223-8.133-5.486c-1.664-0.445-3.703-0.424-4.93-1.412c-7.549-6.082-15.104-5.373-22.535-0.043
					c-1.314-2.186,0.617-4.145-0.688-5.867c-5.402,3.965-6.92,8.715-3.297,10.717c12.447,6.875,24.445,15.959,40.088,9.203
					c1.729-0.746,3.754-0.816,5.645-1.182c2.947-0.57,5.66-1.125,5.215-5.297c-0.385-3.621,2.5-3.102,4.771-3.104
					c8.416-0.004,16.832,0,26.34,0c-4.326-1.912-7.766-3.432-12.031-5.318c14.891-5.465,20.238,7.471,29.992,12.771
					c-4.283-8.049,3.668-0.424,4.295-4.02c0.35-2.01,2.07,0.602,2.451,1.357c3.342,6.611,9.641,7.797,17.043,9.82
					c-3.496-3.73-7.746-4.238-10.504-7.826c17.592,0,34.561,0,51.531,0c-8.594,4.242-18.018,4.496-27.404,7.137
					c3.619,3.074,11.857-0.184,9.797,9.105c9.406-6.057,19.709-8.516,26.799-16.406c0.604-0.67,1.605-1.5,2.357-1.441
					c9.301,0.719,16.268-5.309,24.293-8.236c2.414-0.881,4.529-2.066,5.889-4.979c-7.912,0.521-15.424,0.807-22.885,1.584
					c-4.346,0.453-7.729-0.656-11.039-3.471c-5.67-4.824-11.26-10.037-19.607-9.781c12.596-0.283,25.021-0.334,37.445-0.266
					c7.48,0.041,15.146,1.602,22.395-0.402c15.768-4.355,31.334-9.439,46.982-14.227
					C701.489,659.457,695.61,660.086,692.655,664.791z M452.065,687.721c8.301-3.764,24.963,0.232,28.18,7.154
					C465.461,698.322,465.461,698.322,452.065,687.721z M547.555,682.744c-1.764,1.395-0.697,3.971-3.18,5.34
					c-8.197-8.322-18.422-14.6-27.061-22.992c14.977,2.48,25.648,12.896,37.93,19.977
					C551.817,685.846,549.583,684.516,547.555,682.744z M561.44,682.471c-6.908-5.355-15.357-8.711-23.068-13.049
					c-1.846-1.039-4.48-1.646-3.918-5.07c20.525,4.037,36.668,16.572,54.564,27.023C578.155,691.928,569.606,688.801,561.44,682.471
					z M611.862,683.572c-2.033,2.318-3.98,0.52-5.633,1.59c0.213,1.65,3.158,1.352,2.609,3.768
					c-3.83-1.502-7.697-3.018-11.564-4.533c-0.178,0.334-0.357,0.666-0.535,1c1.828,1.297,3.656,2.594,5.482,3.893
					c-14.189-3.289-26.064-11.379-39.508-17.736c3.469-1.346,5.916,0.709,8.619,0.729c0.359-1.955-1.916-1.703-2.143-3.076
					c1.486-1,2.832,0.543,4.148,0.363c6.834-0.928,13.369,0.344,19.752,2.535C600.18,674.533,605.928,679.078,611.862,683.572z"/>
				<path fill-rule="evenodd" clip-rule="evenodd" fill="#FFFFFF" d="M693.856,537.342c-3.986-2.082-6.461-4.904-8.314-8.291
					c-0.678-1.238-1.857-2.637,0.152-3.967c1.807-1.195,3.49-1.029,5.447-0.377c2.01,0.67,1.627,1.953,1.08,3.158
					C690.698,531.215,694.401,533.442,693.856,537.342z"/>
				<path fill-rule="evenodd" clip-rule="evenodd" fill="#FFFFFF" d="M630.385,499.684c-6.912-1.682-8.162,3.961-12.182,6.129
					c-1.035-3.879-2.338-8.061,1.268-10.088C622.614,493.958,626.168,496.336,630.385,499.684z"/>
				<path fill-rule="evenodd" clip-rule="evenodd" fill="#FFFFFF" d="M702.62,541.625c-4.211,5.334,0.943,8.607,2.131,12.717
					c-4.793-1.115-10.404-6.371-9.664-9.471C695.893,541.475,698.475,540.543,702.62,541.625z"/>
				<path fill-rule="evenodd" clip-rule="evenodd" fill="#FFFFFF" d="M740.983,568.932c-5.594-0.158-8.68-3.299-10.604-7.66
					c-0.996-2.256,0.436-4.252,2.625-4.895c2.746-0.809,2.453,1.664,2.66,3.242C736.149,563.295,739.145,565.516,740.983,568.932z"
					/>
				<path fill-rule="evenodd" clip-rule="evenodd" fill="#FFFFFF" d="M646.088,532.956c-3.746-1.766-7.15-3.963-6.945-8.143
					c0.168-3.412,3.602-3.934,6.811-4.918C645.567,524.37,643.262,528.61,646.088,532.956z"/>
				<path fill-rule="evenodd" clip-rule="evenodd" fill="#FFFFFF" d="M757.606,573.072c-3.406-2.258-5.486-4.678-7.576-7.146
					c-1.387-1.637-0.988-3.223-0.418-4.783c0.605-1.654,2.203-1.117,3.475-1.01c2.498,0.211,2.307,2.043,2.162,3.787
					C755,566.869,756.428,569.406,757.606,573.072z"/>
				<path fill-rule="evenodd" clip-rule="evenodd" fill="#FFFFFF" d="M712.249,542.926c-1.332,5.545,2.189,8.912,5.596,12.617
					c-3.393,0.213-5.416-1.646-7.504-3.221C704.719,548.082,705.075,546.031,712.249,542.926z"/>
				<path fill-rule="evenodd" clip-rule="evenodd" fill="#FFFFFF" d="M632.981,366.427c5.967,4.352,12.813,8.172,10.104,17.766
					c-1.08-7.379-7.531-11.051-10.994-16.783C632.389,367.082,632.686,366.755,632.981,366.427z"/>
				<path fill-rule="evenodd" clip-rule="evenodd" fill="#FFFFFF" d="M658.235,711.268c-1.24,2.816-3.877,0.877-5.705,1.852
					c-0.549,2.275,3.832,0.021,2.68,2.67c-0.633,1.457-2.229,1.188-3.564,1.326c-2.471,0.256-4.93,0.631-7.748,1.004
					C647.934,713.965,651.118,708.764,658.235,711.268z"/>
				<path fill-rule="evenodd" clip-rule="evenodd" fill="#FFFFFF" d="M708.303,537.125c-3.389,0.127-6.27-1.1-7.908-3.666
					c-1.107-1.734,1.334-3.254,2.164-4.877c0.621-1.217,1.793-1.348,2.967-1.182c1.688,0.238,1.549,1.561,1.166,2.609
					C705.715,532.686,708.338,534.506,708.303,537.125z"/>
				<path fill-rule="evenodd" clip-rule="evenodd" fill="#FFFFFF" d="M692.067,547.771c-5.285,1.793-8.475-1.119-10.02-9.837
					C684.168,542.555,690.674,542.373,692.067,547.771z"/>
				<path fill-rule="evenodd" clip-rule="evenodd" fill="#FFFFFF" d="M756.764,559.096c-3.402-2.684-6.281-4.938-5.281-8.381
					c0.553-1.902,3.457-1.775,5.545-0.764c1.127,0.547,2.934,0.801,1.594,2.598C757.336,554.271,757.209,556.314,756.764,559.096z"
					/>
				<path fill-rule="evenodd" clip-rule="evenodd" fill="#FFFFFF" d="M725.883,552.475c-6.193-2.246-8.229-5.486-5.371-8.559
					c0.965-1.039,2.221-1.719,3.596-1.363c1.617,0.416,0.908,1.879,0.762,2.865c-0.205,1.387-0.23,2.672,0.535,3.877
					C726.04,550.295,726.586,551.285,725.883,552.475z"/>
				<path fill-rule="evenodd" clip-rule="evenodd" fill="#FFFFFF" d="M736.821,543.754c-1.725,3.361-3.535,5.965-1.748,9.564
					c-4.23-0.857-6.527-3.504-6.035-6.418C729.631,543.391,733.493,544.533,736.821,543.754z"/>
				<path fill-rule="evenodd" clip-rule="evenodd" fill="#FFFFFF" d="M747.75,570.902c-3.629-1.68-5.525-4.492-7.201-7.422
					c-0.713-1.246-0.354-2.654,0.863-3.631c0.748-0.6,1.561-1.359,2.582-0.934c1.447,0.605,0.885,1.961,0.768,3.012
					C744.389,565.221,747.262,567.439,747.75,570.902z"/>
				<path fill-rule="evenodd" clip-rule="evenodd" fill="#FFFFFF" d="M764.153,570.455c-2.008-3.277-4.309-5.471-2.883-8.316
					c1.295-2.588,4.123-2.158,7.086-2.342C766.872,563.383,764.645,566.117,764.153,570.455z"/>
				<path fill-rule="evenodd" clip-rule="evenodd" fill="#FFFFFF" d="M662.768,728.623c3.664-4.393,8.428-2.268,14.313-2.607
					C672.102,731.043,667.149,728.115,662.768,728.623z"/>
				<path fill-rule="evenodd" clip-rule="evenodd" fill="#FFFFFF" d="M534.063,302.736c7.059-0.178,11.24,3.887,14.314,9.59
					C542.917,310.146,539.542,304.89,534.063,302.736z"/>
				<path fill-rule="evenodd" clip-rule="evenodd" fill="#FFFFFF" d="M745.971,546.895c-1.172,2.969-1.992,5.453,0.531,8.59
					c-4.74-1.391-7.373-3.484-6.594-7.096C740.571,545.322,743.547,547.539,745.971,546.895z"/>
				<path fill-rule="evenodd" clip-rule="evenodd" fill="#FFFFFF" d="M722.37,531.893c-5.057-0.621-6.742,1.982-8.484,4.564
					c-2.201-2.121-2.348-4.66-0.658-6.234C715.542,528.065,718.381,528.856,722.37,531.893z"/>
				<path fill-rule="evenodd" clip-rule="evenodd" fill="#FFFFFF" d="M727.313,566.957c-2.08-1.863-3.676-3.184-5.137-4.637
					c-1.471-1.463-0.822-3.244-0.246-4.805c0.451-1.225,1.842-1.402,2.943-1.164c2.355,0.51,0.91,2.459,1.193,3.746
					C726.508,562.094,726.807,564.123,727.313,566.957z"/>
				<path fill-rule="evenodd" clip-rule="evenodd" fill="#FFFFFF" d="M744.44,593.547c-4.025-1.502-6.787-2.896-6.902-6.816
					c-0.084-2.879,2.023-3.219,5.01-3.352C739.754,587.145,742.76,589.752,744.44,593.547z"/>
				<path fill-rule="evenodd" clip-rule="evenodd" fill="#FFFFFF" d="M665.918,766.814c2.105-1.805,3.898-3.412,5.771-4.918
					c0.779-0.625,1.617-2.082,2.771-0.691c0.887,1.072,1.154,2.592,0.08,3.684C672.327,767.143,669.747,768.453,665.918,766.814z"/>
				<path fill-rule="evenodd" clip-rule="evenodd" fill="#FFFFFF" d="M540.62,739.414c1.764,0.098,2.52,0.002,3.189,0.199
					c3.346,0.98,6.305,2.613,8.244,5.613c0.23,0.355-0.539,1.854-0.605,1.836c-3.088-0.748-4.904-3.43-7.469-5.01
					C543.043,741.479,542.235,740.695,540.62,739.414z"/>
				<path fill-rule="evenodd" clip-rule="evenodd" fill="#FFFFFF" d="M765.006,599.002c0.639,2.867,1.242,5.574,1.918,8.609
					c-3.074-0.107-5.15-1.656-5.676-4.289C760.784,600.99,762.881,599.859,765.006,599.002z"/>
				<path fill-rule="evenodd" clip-rule="evenodd" fill="#FFFFFF" d="M662.583,587.438c5.1,0.844,9.158,3.018,13.947,5.283
					C669.336,593.322,667.286,592.529,662.583,587.438z"/>
				<path fill-rule="evenodd" clip-rule="evenodd" fill="#FFFFFF" d="M733.252,586.607c-2.43,2.738-0.969,5.879-1.416,8.824
					c-3.568-1.367-3.596-4.133-3.176-7.037C729.122,585.209,731.493,587.059,733.252,586.607z"/>
				<path fill-rule="evenodd" clip-rule="evenodd" fill="#FFFFFF" d="M448.987,280.49c-19.871-6.096-39.689-12.385-59.648-18.176
					c-6.68-1.939-12.648-4.438-17.043-10.008c-1.697-2.15-6.318-3.9-4.77-6.174c0,0,33.982,14.498,47.803,20.385
					c1.395,0.594,2.719,1.578,4.807,0.41c-8.457-7.885-18.82-13.33-26.402-22.107c10.684,4.521,21.59,7.527,32.752,9.756
					c-21.309-10.988-43.215-20.443-66.01-27.803c11.102,8.754,23.744,15.168,33.527,25.734
					c-15.936-6.436-30.85-15.309-47.621-19.756c8.799,7.17,16.736,15.049,25.939,23.496c-14.488-2.836-24.867-11.877-37.574-15.301
					c5.498,3.586,8.879,9.693,15.027,12.252c17.914,7.455,35.279,16.375,54.688,19.785c13.059,2.295,46.033,10.746,50.957,10.27
					C452.958,281.089,450.944,280.859,448.987,280.49z"/>
				<path fill-rule="evenodd" clip-rule="evenodd" fill="#FFFFFF" d="M790.034,615.453c2.93-0.16,5.287-1.166,7.863-2.492
					C796.338,619.779,796.338,619.779,790.034,615.453z"/>
				<path fill-rule="evenodd" clip-rule="evenodd" fill="#FFFFFF" d="M803.145,615.965c-0.418,2.248,0.076,4.863-2.23,6.123
					c-0.379,0.207-2.094-0.873-2.207-1.527C798.145,617.34,802.202,618.219,803.145,615.965z"/>
				<path fill-rule="evenodd" clip-rule="evenodd" fill="#FFFFFF" d="M632.09,367.41c-0.758-0.518-1.582-1.008-0.9-2.133
					c0.596,0.385,1.193,0.77,1.791,1.152C632.686,366.755,632.389,367.082,632.09,367.41z"/>
				<path fill-rule="evenodd" clip-rule="evenodd" fill="#FFFFFF" d="M395.78,782.443c-0.365,0.699-1.258,1.096-1.541,0.525
					c-0.367-0.74,0.725-0.682,1.223-0.924C395.458,782.039,395.78,782.443,395.78,782.443z"/>
				<path fill-rule="evenodd" clip-rule="evenodd" fill="#FFFFFF" d="M680.661,512.124c-9.889-8.182-17.92-17.881-24.178-29.089
					c-0.658-1.178-0.924-3.057-2.936-3.053c-1.381,2.102,2.094,4.074,0.191,6.25c-10.184-8.57-21.604-15.756-27.525-28.291
					c-0.584-0.678-1.168-1.357-1.754-2.035c1.35-0.928,1.945,0.271,2.723,0.961c5.68,3.615,9.447,9.348,14.781,13.348
					c0.001,0,0.001,0,0.001,0c0.526,0.347,1.052,0.695,1.577,1.045c0.566-0.949,0.26-1.635-0.648-2.139
					c-0.727-1.637-1.451-3.271-2.178-4.908c-0.734-0.816-1.469-1.631-2.369-2.633c1.938-0.484,2.566,0.764,3.338,1.758
					c6.242,5.15,12.484,10.303,18.727,15.453c0.275-0.35,0.549-0.699,0.824-1.049c-7.795-9.707-15.59-19.414-23.383-29.119
					c-0.629-0.68-1.258-1.359-1.887-2.039c1.404-1.033,1.961,0.395,2.811,0.967c5.375,2.324,8.08,7.881,14.002,11.723
					c-7.088-16.475-22.203-22.416-34.842-32.574c2.637,7.461,6.912,13.068,11.773,19.873c-15.434-6.957-18.012-19.336-19.506-33.406
					c5.605,3.525,10.871,6.119,15.234,9.785c4.145,3.482,7.344,8.086,10.959,12.195c-0.471-3.859-1.871-7.111-3.973-10.096
					c-7.104-10.094-17.291-16.994-26.078-25.346c-1.799-1.709-3.719-3.17-4.525-5.807c-2.42-7.914-5.633-15.619-7.545-23.645
					c-1.906-8.002-6.893-13.369-12.66-18.502c-13.662-12.16-28.305-23.158-43.029-33.881
					c-19.361-14.102-66.361-33.588-66.947-32.521c-0.475,0.867,1.5,0.865,2.262,1.449c30.994,14.686,59.217,33.289,83.68,57.588
					c7.84,7.789,15.613,15.961,25.336,21.615c4.563,2.656,7.428,6.217,9.191,11.207c3.063,8.658,8.367,16.355,10.184,25.637
					c4.133,21.117,5.193,42.801,12.41,63.365c7.221,20.584,19.506,35.95,40.922,42.679c7.703,2.42,15.494,4.582,23.303,6.645
					c1.314,0.348,2.963,2.459,4.068,0.639C684.151,514.266,681.934,513.178,680.661,512.124z M657.583,501.768
					c0.504-1.705,0.063-3.139-1.248-4.32c-1.742-0.982-3.484-1.965-5.227-2.947c-3.338-2.49-6.674-4.979-10.012-7.47l-0.001,0.001
					c-1.104-0.85-1.658-2.563-3.597-2.321c0.264,1.67,1.471,2.518,2.561,3.451c2.852,3.112,6.367,5.323,9.992,7.388
					c1.73,2.51,6.543,1.775,6.49,6.164c-2.844-1.57-5.604-3.318-8.545-4.676c-14.729-6.805-19.164-20.897-24.646-34.331
					c8.068,14.637,22.248,22.994,34.154,33.649c4.701,2.674,7.686,7.203,11.572,10.893
					C665.057,505.749,660.375,505.801,657.583,501.768z"/>
				<path fill="#FFFFFF" d="M771.645,577.365c2.439,4.531,6.186,9.008-0.162,13.205c-0.639,0.422-0.803,1.727-0.975,2.662
					c-1.154,6.291,5.75,16.266,13.244,19.205c6.32,2.482,10.123,0.75,14.832-6.545c1.678-0.402,1.094,2.199,2.895,1.969
					C799.85,599.279,780.569,579.512,771.645,577.365z M795.497,604.93c-1.32,3.367-4.479,3.707-7.775,2.822
					c-5.654-1.516-9.916-6.744-9.305-11.508c0.529-4.119,3.438-5.463,6.604-2.832c2.133,1.771,4.881,2.963,6.066,5.748
					C793.984,600.01,796.946,601.232,795.497,604.93z"/>
				<path fill="#FFFFFF" d="M786.448,601.803c-0.055,2.176,1.109,1.551,2.627,1.357c3.057-0.389,3.136-1.752,1.996-3.924
					C789.106,599.326,786.532,598.387,786.448,601.803z"/>
			</g>
		</g>
	</g>
</g>
</svg>
